:SAMPLES-PER-SECOND 30
:FULLY-SPECIFIED
:DEGREES
351
root  4.86057 27.9016 -57.9034 -173.793 -3.23111 -176.333
RightUpLeg  -69.8055 -9.30903 11.6381
RightLeg  77.3324 14.0119 -12.7135
RightFoot  -17.6456 0.0484394 -0.18405
RightToes  -1.16415e-010 -3.18055e-015 -2.98177e-016
Spine  38.099 -3.51708 5.37803
Spine1  -3.83857 -2.46211 6.09929
HEad  -22.6157 1.40977 3.93987
LeftShoulder1  -3.88251e-019 9.70628e-020 -3.87848e-018
LeftArm  -21.826 17.6067 -64.4393
LeftForeArm  8.62737 -36.1671 8.64522
LeftHand  -5.78325 -9.64127 43.9026
RightShoulder  5.32393 9.5131 25.8492
RightArm  5.11206 -39.8713 23.5491
RightForeArm  5.11409 33.125 -18.2861
RightHand  -1.93997 3.36189 -25.1253
LeftUpLeg  -29.6886 2.83999 9.65503
LeftLeg  90.5736 -13.6055 2.19328
LeftFoot  -50.1131 -4.89088 -14.1266
LeftToes  1.69338e-011 3.79281e-011 -2.20049e-011
352
root  4.87861 28.0832 -57.9664 -173.602 -3.24423 -176.46
RightUpLeg  -69.4031 -9.33784 11.5574
RightLeg  76.7009 13.8847 -12.6639
RightFoot  -17.5775 0.0452854 -0.263156
RightToes  -1.16415e-010 -3.18055e-015 -2.98177e-016
Spine  37.9408 -3.54161 5.39723
Spine1  -3.94004 -2.48483 5.98043
HEad  -22.5851 1.36704 3.86141
LeftShoulder1  -3.88251e-019 9.70628e-020 -3.87848e-018
LeftArm  -21.8287 17.7035 -64.4684
LeftForeArm  9.0961 -36.0654 8.63413
LeftHand  -5.807 -9.73313 43.8163
RightShoulder  5.38143 9.53328 26.1362
RightArm  5.42426 -39.7252 23.1208
RightForeArm  5.71596 32.9163 -18.1825
RightHand  -2.02911 3.58738 -25.6077
LeftUpLeg  -29.3247 3.07504 9.45145
LeftLeg  89.3455 -13.5785 2.3729
LeftFoot  -50.1537 -4.80869 -13.8678
LeftToes  1.69338e-011 3.79281e-011 -2.20049e-011
353
root  4.90032 28.3005 -58.0483 -173.326 -3.3759 -176.55
RightUpLeg  -68.9587 -9.54137 11.5726
RightLeg  75.9618 13.7509 -12.5145
RightFoot  -17.5498 0.0410555 -0.374372
RightToes  -1.16415e-010 -3.18055e-015 -2.98177e-016
Spine  37.766 -3.6082 5.41275
Spine1  -4.21574 -2.59282 6.0902
HEad  -22.4879 1.38228 3.75577
LeftShoulder1  -3.88251e-019 9.70628e-020 -3.87848e-018
LeftArm  -21.8486 17.9767 -64.5027
LeftForeArm  9.52492 -35.8217 8.57565
LeftHand  -5.89584 -9.93178 43.8852
RightShoulder  5.44554 9.55781 26.4509
RightArm  5.66758 -39.6585 22.6442
RightForeArm  5.74746 32.9049 -18.1767
RightHand  -2.12186 3.77439 -26.2219
LeftUpLeg  -29.0575 3.09143 9.23612
LeftLeg  87.9197 -13.5417 2.84859
LeftFoot  -49.985 -4.69423 -13.5979
LeftToes  1.69338e-011 3.79281e-011 -2.20049e-011
354
root  4.91756 28.5456 -58.1451 -172.908 -3.60089 -176.652
RightUpLeg  -68.5783 -9.83535 11.5995
RightLeg  75.1278 13.6057 -12.3363
RightFoot  -17.4887 0.0385181 -0.442033
RightToes  -1.16415e-010 -3.18055e-015 -2.98177e-016
Spine  37.4283 -3.71335 5.52464
Spine1  -4.51387 -2.73646 6.27384
HEad  -22.5636 1.3575 3.71014
LeftShoulder1  -3.88251e-019 9.70628e-020 -3.87848e-018
LeftArm  -21.8969 18.346 -64.6251
LeftForeArm  9.92737 -35.4841 8.48656
LeftHand  -6.00636 -10.2084 43.8917
RightShoulder  5.51149 9.5825 26.7742
RightArm  5.97492 -39.8251 22.0646
RightForeArm  4.69483 33.3302 -18.3963
RightHand  -2.08014 3.60352 -26.1847
LeftUpLeg  -28.9892 2.87675 9.02985
LeftLeg  86.564 -13.4883 3.10514
LeftFoot  -49.4896 -4.5958 -13.5038
LeftToes  1.69338e-011 3.79281e-011 -2.20049e-011
355
root  4.93146 28.8191 -58.2675 -172.289 -3.89415 -176.802
RightUpLeg  -68.3204 -10.1882 11.629
RightLeg  74.1966 13.4428 -12.1702
RightFoot  -17.3777 0.0358911 -0.515506
RightToes  -1.16415e-010 -3.18055e-015 -2.98177e-016
Spine  36.7917 -3.84446 5.80345
Spine1  -4.75421 -2.87626 6.38579
HEad  -22.8398 1.18718 3.58294
LeftShoulder1  -3.88251e-019 9.70628e-020 -3.87848e-018
LeftArm  -21.7699 18.8083 -64.8212
LeftForeArm  10.1681 -35.1642 8.39647
LeftHand  -6.01162 -10.2993 43.6891
RightShoulder  5.55814 9.59241 27.0171
RightArm  6.39402 -40.2434 21.4341
RightForeArm  3.45403 33.8707 -18.684
RightHand  -1.958 3.25379 -25.6526
LeftUpLeg  -29.0831 2.70806 8.7471
LeftLeg  85.1082 -13.4191 3.31808
LeftFoot  -48.8529 -4.52123 -13.536
LeftToes  1.69338e-011 3.79281e-011 -2.20049e-011
356
root  4.9508 29.1455 -58.4221 -171.517 -4.25902 -177.023
RightUpLeg  -68.0366 -10.5746 11.6257
RightLeg  73.063 13.2336 -12.0453
RightFoot  -17.2279 0.031605 -0.642262
RightToes  -1.16415e-010 -3.18055e-015 -2.98177e-016
Spine  35.9488 -3.98189 6.15798
Spine1  -4.99232 -3.02849 6.46128
HEad  -23.0842 0.881119 3.39697
LeftShoulder1  -3.88251e-019 9.70628e-020 -3.87848e-018
LeftArm  -21.2775 19.3951 -65.05
LeftForeArm  9.95425 -34.7808 8.26677
LeftHand  -5.87292 -10.0947 43.3027
RightShoulder  5.57814 9.58699 27.1404
RightArm  6.76274 -40.7642 20.9166
RightForeArm  3.17673 34.0361 -18.7774
RightHand  -1.88031 3.06861 -25.1845
LeftUpLeg  -29.1871 2.66825 8.30637
LeftLeg  83.2095 -13.2935 3.88226
LeftFoot  -48.1194 -4.40064 -13.4647
LeftToes  1.69338e-011 3.79281e-011 -2.20049e-011
357
root  4.97801 29.5467 -58.6026 -170.795 -4.55305 -177.366
RightUpLeg  -67.4323 -10.8035 11.413
RightLeg  71.6168 12.9447 -11.9941
RightFoot  -17.0126 0.0283069 -0.754684
RightToes  -1.16415e-010 -3.18055e-015 -2.98177e-016
Spine  35.183 -4.07639 6.39004
Spine1  -5.29348 -3.17101 6.54323
HEad  -23.1584 0.61224 3.44714
LeftShoulder1  -3.88251e-019 9.70628e-020 -3.87848e-018
LeftArm  -20.5309 20.1836 -65.3259
LeftForeArm  9.45022 -34.1928 8.06252
LeftHand  -5.70885 -9.83965 42.8657
RightShoulder  5.58912 9.57918 27.2178
RightArm  6.91837 -41.2283 20.5946
RightForeArm  3.85867 33.7618 -18.6328
RightHand  -1.84579 3.03952 -24.817
LeftUpLeg  -28.9805 2.6447 7.70832
LeftLeg  80.8005 -13.0868 4.58677
LeftFoot  -47.1941 -4.21823 -13.2718
LeftToes  1.69338e-011 3.79281e-011 -2.20049e-011
358
root  5.00527 30.0192 -58.807 -170.241 -4.59952 -177.836
RightUpLeg  -66.3923 -10.7428 10.918
RightLeg  69.8593 12.5793 -11.9767
RightFoot  -16.7066 0.0284653 -0.77878
RightToes  -1.16415e-010 -3.18055e-015 -2.98177e-016
Spine  34.6054 -4.06767 6.40805
Spine1  -5.68018 -3.24319 6.71657
HEad  -23.1164 0.522454 3.71307
LeftShoulder1  -3.88251e-019 9.70628e-020 -3.87848e-018
LeftArm  -19.8325 21.3687 -65.6883
LeftForeArm  9.33082 -33.4694 7.838
LeftHand  -5.62408 -9.76501 42.4828
RightShoulder  5.5943 9.56824 27.2689
RightArm  6.91934 -41.5986 20.3553
RightForeArm  4.70089 33.2727 -18.3605
RightHand  -1.79182 2.96473 -24.3194
LeftUpLeg  -28.249 2.6115 7.00926
LeftLeg  78.0087 -12.8371 4.99713
LeftFoot  -46.1103 -4.05558 -13.1992
LeftToes  1.69338e-011 3.79281e-011 -2.20049e-011
359
root  5.02741 30.5579 -59.0475 -169.719 -4.43965 -178.339
RightUpLeg  -65.0693 -10.5898 10.3673
RightLeg  67.8102 12.1822 -11.8408
RightFoot  -16.3349 0.0296528 -0.779408
RightToes  -1.16415e-010 -3.18055e-015 -2.98177e-016
Spine  33.9969 -3.95791 6.32129
Spine1  -6.17851 -3.24593 7.0999
HEad  -22.9697 0.524746 3.79083
LeftShoulder1  -3.88251e-019 9.70628e-020 -3.87848e-018
LeftArm  -19.2576 23.1061 -66.1011
LeftForeArm  9.83084 -32.7328 7.6411
LeftHand  -5.57802 -9.80328 42.0669
RightShoulder  5.58543 9.54912 27.2576
RightArm  6.99706 -41.9207 19.9662
RightForeArm  5.24068 32.6641 -18.0035
RightHand  -1.73268 2.86181 -23.8227
LeftUpLeg  -27.151 2.59622 6.24213
LeftLeg  74.7828 -12.5245 5.31404
LeftFoot  -44.8784 -3.92913 -13.3083
LeftToes  1.69338e-011 3.79281e-011 -2.20049e-011
360
root  5.04983 31.1821 -59.3425 -169.095 -4.15942 -178.799
RightUpLeg  -63.5203 -10.5936 9.9909
RightLeg  65.3823 11.8135 -11.4012
RightFoot  -15.9207 0.0279665 -0.908844
RightToes  -1.16415e-010 -3.18055e-015 -2.98177e-016
Spine  33.1494 -3.83977 6.30193
Spine1  -6.79775 -3.21924 7.43997
HEad  -22.7115 0.448069 3.65684
LeftShoulder1  -3.88251e-019 9.70628e-020 -3.87848e-018
LeftArm  -18.5926 25.3206 -66.4158
LeftForeArm  10.3905 -31.8484 7.40751
LeftHand  -5.49936 -9.82502 41.471
RightShoulder  5.59486 9.54311 27.3228
RightArm  7.33142 -42.2463 19.2431
RightForeArm  5.50918 31.9609 -17.5825
RightHand  -1.69957 2.80989 -23.5221
LeftUpLeg  -25.8142 2.60479 5.39113
LeftLeg  70.8422 -11.9835 6.05564
LeftFoot  -43.3401 -3.74209 -13.3452
LeftToes  1.69338e-011 3.79281e-011 -2.20049e-011
361
root  5.07967 31.9097 -59.7076 -168.496 -3.59752 -179.202
RightUpLeg  -61.5206 -10.6795 9.77198
RightLeg  62.4658 11.5435 -10.5505
RightFoot  -15.4339 0.0233846 -1.25824
RightToes  -1.16415e-010 -3.18055e-015 -2.98177e-016
Spine  32.1287 -3.77374 6.41126
Spine1  -7.47898 -3.13374 7.2307
HEad  -22.4337 0.265482 3.67402
LeftShoulder1  -3.88251e-019 9.70628e-020 -3.87848e-018
LeftArm  -17.7902 27.8984 -66.4922
LeftForeArm  10.5696 -30.5748 7.05785
LeftHand  -5.41798 -9.85878 40.8265
RightShoulder  5.6649 9.57235 27.657
RightArm  7.93464 -42.6296 18.1799
RightForeArm  5.59098 31.3017 -17.1875
RightHand  -1.6591 2.73911 -23.1675
LeftUpLeg  -23.9283 2.77415 4.5058
LeftLeg  66.0257 -11.1314 7.0405
LeftFoot  -41.4362 -3.47313 -13.2453
LeftToes  1.69338e-011 3.79281e-011 -2.20049e-011
362
root  5.11936 32.7213 -60.1506 -168.082 -2.59346 -179.505
RightUpLeg  -58.926 -10.6838 9.66312
RightLeg  59.0704 11.4483 -9.32224
RightFoot  -14.8258 0.0201984 -1.81111
RightToes  -1.16415e-010 -3.18055e-015 -2.98177e-016
Spine  31.0272 -3.67264 6.53087
Spine1  -8.15274 -2.93987 6.64985
HEad  -21.9996 -0.0357523 3.5625
LeftShoulder1  -3.88251e-019 9.70628e-020 -3.87848e-018
LeftArm  -17.1589 30.9388 -66.3428
LeftForeArm  10.4743 -28.9206 6.56582
LeftHand  -5.36629 -9.89391 40.3829
RightShoulder  5.75331 9.60998 28.0753
RightArm  8.66037 -43.1196 16.9507
RightForeArm  5.62485 30.7473 -16.8588
RightHand  -1.58915 2.6236 -22.5239
LeftUpLeg  -21.2877 3.31346 3.77043
LeftLeg  60.6102 -10.2044 7.53103
LeftFoot  -39.1415 -3.20602 -13.3383
LeftToes  1.69338e-011 3.79281e-011 -2.20049e-011
363
root  5.17538 33.5737 -60.6602 -167.781 -1.35738 -179.676
RightUpLeg  -55.9347 -10.7019 9.71748
RightLeg  55.2884 11.5509 -7.89975
RightFoot  -14.0696 0.0245336 -2.47894
RightToes  -1.16415e-010 -3.18055e-015 -2.98177e-016
Spine  29.744 -3.43697 6.43523
Spine1  -8.8028 -2.71433 6.57152
HEad  -21.2289 -0.350638 2.7636
LeftShoulder1  -3.88251e-019 9.70628e-020 -3.87848e-018
LeftArm  -17.0118 34.499 -66.0288
LeftForeArm  10.1017 -27.0597 5.75387
LeftHand  -5.25764 -9.7837 39.9044
RightShoulder  5.76598 9.60842 28.1491
RightArm  9.27787 -43.7174 15.7997
RightForeArm  5.80324 30.1465 -16.5139
RightHand  -1.53629 2.58228 -21.9038
LeftUpLeg  -18.4399 4.16156 3.31152
LeftLeg  55.331 -9.50784 7.35183
LeftFoot  -35.9567 -2.90759 -13.8272
LeftToes  1.69338e-011 3.79281e-011 -2.20049e-011
